<svg xmlns="http://www.w3.org/2000/svg" width="192" height="224" viewBox="-48 -60 96 112" data-plant-kind="mirror_star" data-facing="right" data-model-archetype="shroom" data-geometry-signature="2bca3a5dc4707cfdc89e1564e682f4f2"><defs><linearGradient id="hp" x1=".2" y1="0" x2=".8" y2="1"><stop stop-color="#fff0c9"/><stop offset="1" stop-color="#d9b585"/></linearGradient><linearGradient id="gold" x1=".2" y1="0" x2=".8" y2="1"><stop stop-color="#fbe4a0"/><stop offset="1" stop-color="#d6953f"/></linearGradient><linearGradient id="ice" x1=".2" y1="0" x2=".8" y2="1"><stop stop-color="#d7f5f4"/><stop offset="1" stop-color="#72abc8"/></linearGradient></defs><g stroke-linejoin="round" stroke-linecap="round"><ellipse cx="0" cy="38" rx="28.6" ry="4" fill="#233e2b" opacity=".16"/><g data-host="mirror_shroom"><g transform="translate(0.0 9.0) rotate(0.0) scale(0.800)"><ellipse cx="0" cy="35" rx="22" ry="4" fill="#233e2b" stroke="none" stroke-width="1.4" opacity=".14"/><path d="M-10 -6 Q-4 16 -14 28 Q-19 36 -5 35 L8 35 Q19 36 12 28 Q6 16 11 -6Z" fill="url(#hp)" stroke="#283e35" stroke-width="1.7" /><path d="M-10 -2 Q-3 21 -13 30 L-7 33 Q0 11 -2 -2Z" fill="#d4c297" stroke="none" stroke-width="1.7" /><ellipse cx="0" cy="-3" rx="25" ry="8" fill="#77576c" stroke="#283e35" stroke-width="1.4"/><path d="M-18 -3 L-6 1 M-8 -4 L-2 2 M8 -4 L3 2 M18 -3 L7 1" fill="none" stroke="#e7c9c4" stroke-width="1" /><path d="M-29 -5 L-18 -30 L2 -39 L23 -26 L29 -5 L3 1Z" fill="url(#ice)" stroke="#283e35" stroke-width="2" /><path d="M-18 -28 L-5 -9 L-25 -9 M-5 -9 L2 -34 L14 -7 L-5 -9 L1 -1 M14 -7 L24 -20" fill="none" stroke="#e5ffff" stroke-width="1.2" /><ellipse cx="-5" cy="13" rx="2.4" ry="4" fill="#283e35" stroke="none" stroke-width="1.4"/><ellipse cx="-5.65" cy="11.4" rx="0.75" ry="1.1" fill="#fffbed" stroke="none" stroke-width="1.4"/><ellipse cx="5" cy="13" rx="2.4" ry="4" fill="#283e35" stroke="none" stroke-width="1.4"/><ellipse cx="4.35" cy="11.4" rx="0.75" ry="1.1" fill="#fffbed" stroke="none" stroke-width="1.4"/><path d="M-4 22 q4 3 8 0" fill="none" stroke="#283e35" stroke-width="1.4" /></g></g><g data-organ="graft-collar"><path d="M-20 35 Q-8 29 0 33 Q9 28 20 34" fill="none" stroke="#283e35" stroke-width="3.6"/><path d="M-20 35 Q-8 29 0 33 Q9 28 20 34" fill="none" stroke="#6fa553" stroke-width="2"/><path d="M-14.0 32.0 q-5 -6 -1 -10 q5 3 1 10Z" fill="url(#gold)" stroke="#283e35" stroke-width="0.9" transform="rotate(-30 -14.0 32.0)"/><path d="M0.0 30.0 q-5 -6 -1 -10 q5 3 1 10Z" fill="url(#gold)" stroke="#283e35" stroke-width="0.9" transform="rotate(0 0.0 30.0)"/><path d="M14.0 32.0 q-5 -6 -1 -10 q5 3 1 10Z" fill="url(#gold)" stroke="#283e35" stroke-width="0.9" transform="rotate(30 14.0 32.0)"/><circle cx="1" cy="32" r="2.2" fill="#fff2a8" stroke="#283e35" stroke-width="0.8"/></g><g data-organ="named-bloom"><path d="M14.0 23.4 L15.2 26.8 L18.6 28.0 L15.2 29.2 L14.0 32.6 L12.8 29.2 L9.4 28.0 L12.8 26.8Z" fill="#ffd76a" stroke="#283e35" stroke-width="0.7"/><circle cx="14" cy="28" r="1.6" fill="#fff6d0"/></g><g data-ingredient="starfruit"><g transform="translate(0.0 -17.4) rotate(0.0) scale(0.883)"><path d="M0.00,-21.00 L3.04,-14.18 L10.46,-13.40 L4.92,-8.40 L6.47,-1.10 L0.00,-4.83 L-6.47,-1.10 L-4.92,-8.40 L-10.46,-13.40 L-3.04,-14.18Z" fill="url(#gold)" stroke="#283e35" stroke-width="1.1" /><ellipse cx="-3" cy="-10" rx="1" ry="1.6" fill="#283e35" stroke="none" stroke-width="1.4"/><ellipse cx="-3.65" cy="-11.6" rx="0.75" ry="1.1" fill="#fffbed" stroke="none" stroke-width="1.4"/><ellipse cx="3" cy="-10" rx="1" ry="1.6" fill="#283e35" stroke="none" stroke-width="1.4"/><ellipse cx="2.35" cy="-11.6" rx="0.75" ry="1.1" fill="#fffbed" stroke="none" stroke-width="1.4"/></g></g></g></svg>