<svg xmlns="http://www.w3.org/2000/svg" width="192" height="224" viewBox="-48 -60 96 112" data-plant-kind="pair_cotton_candy_galaxy_sunflower" data-facing="right" data-model-archetype="flower" data-geometry-signature="80a0eb1ab49dec0ea1464c50cb5a8ebf"><defs><linearGradient id="hp" x1=".2" y1="0" x2=".8" y2="1"><stop stop-color="#f2b5cd"/><stop offset="1" stop-color="#c2619a"/></linearGradient><linearGradient id="leaf" x1=".2" y1="0" x2=".8" y2="1"><stop stop-color="#88b758"/><stop offset="1" stop-color="#3d774b"/></linearGradient><linearGradient id="violet" x1=".2" y1="0" x2=".8" y2="1"><stop stop-color="#d9c2e9"/><stop offset="1" stop-color="#997bb7"/></linearGradient></defs><g stroke-linejoin="round" stroke-linecap="round"><ellipse cx="0" cy="38" rx="29.8" ry="4" fill="#233e2b" opacity=".16"/><g data-ingredient="galaxy_sunflower"><g transform="translate(-0.2 -2.0) rotate(0.0) scale(0.910)"><g transform="translate(0 0) rotate(15.0)"><path d="M0 0 C-6.5 -8 -6.5 -20 0 -25 C6.5 -20 6.5 -8 0 0Z" fill="url(#violet)" stroke="#283e35" stroke-width="1.25" /><path d="M0 -5 V-19" fill="none" stroke="#fff3c8" stroke-width="0.75" /></g><g transform="translate(0 0) rotate(45.0)"><path d="M0 0 C-6.5 -8 -6.5 -20 0 -25 C6.5 -20 6.5 -8 0 0Z" fill="url(#violet)" stroke="#283e35" stroke-width="1.25" /><path d="M0 -5 V-19" fill="none" stroke="#fff3c8" stroke-width="0.75" /></g><g transform="translate(0 0) rotate(75.0)"><path d="M0 0 C-6.5 -8 -6.5 -20 0 -25 C6.5 -20 6.5 -8 0 0Z" fill="url(#violet)" stroke="#283e35" stroke-width="1.25" /><path d="M0 -5 V-19" fill="none" stroke="#fff3c8" stroke-width="0.75" /></g><g transform="translate(0 0) rotate(105.0)"><path d="M0 0 C-6.5 -8 -6.5 -20 0 -25 C6.5 -20 6.5 -8 0 0Z" fill="url(#violet)" stroke="#283e35" stroke-width="1.25" /><path d="M0 -5 V-19" fill="none" stroke="#fff3c8" stroke-width="0.75" /></g><g transform="translate(0 0) rotate(135.0)"><path d="M0 0 C-6.5 -8 -6.5 -20 0 -25 C6.5 -20 6.5 -8 0 0Z" fill="url(#violet)" stroke="#283e35" stroke-width="1.25" /><path d="M0 -5 V-19" fill="none" stroke="#fff3c8" stroke-width="0.75" /></g><g transform="translate(0 0) rotate(165.0)"><path d="M0 0 C-6.5 -8 -6.5 -20 0 -25 C6.5 -20 6.5 -8 0 0Z" fill="url(#violet)" stroke="#283e35" stroke-width="1.25" /><path d="M0 -5 V-19" fill="none" stroke="#fff3c8" stroke-width="0.75" /></g><g transform="translate(0 0) rotate(195.0)"><path d="M0 0 C-6.5 -8 -6.5 -20 0 -25 C6.5 -20 6.5 -8 0 0Z" fill="url(#violet)" stroke="#283e35" stroke-width="1.25" /><path d="M0 -5 V-19" fill="none" stroke="#fff3c8" stroke-width="0.75" /></g><g transform="translate(0 0) rotate(225.0)"><path d="M0 0 C-6.5 -8 -6.5 -20 0 -25 C6.5 -20 6.5 -8 0 0Z" fill="url(#violet)" stroke="#283e35" stroke-width="1.25" /><path d="M0 -5 V-19" fill="none" stroke="#fff3c8" stroke-width="0.75" /></g><g transform="translate(0 0) rotate(255.0)"><path d="M0 0 C-6.5 -8 -6.5 -20 0 -25 C6.5 -20 6.5 -8 0 0Z" fill="url(#violet)" stroke="#283e35" stroke-width="1.25" /><path d="M0 -5 V-19" fill="none" stroke="#fff3c8" stroke-width="0.75" /></g><g transform="translate(0 0) rotate(285.0)"><path d="M0 0 C-6.5 -8 -6.5 -20 0 -25 C6.5 -20 6.5 -8 0 0Z" fill="url(#violet)" stroke="#283e35" stroke-width="1.25" /><path d="M0 -5 V-19" fill="none" stroke="#fff3c8" stroke-width="0.75" /></g><g transform="translate(0 0) rotate(315.0)"><path d="M0 0 C-6.5 -8 -6.5 -20 0 -25 C6.5 -20 6.5 -8 0 0Z" fill="url(#violet)" stroke="#283e35" stroke-width="1.25" /><path d="M0 -5 V-19" fill="none" stroke="#fff3c8" stroke-width="0.75" /></g><g transform="translate(0 0) rotate(345.0)"><path d="M0 0 C-6.5 -8 -6.5 -20 0 -25 C6.5 -20 6.5 -8 0 0Z" fill="url(#violet)" stroke="#283e35" stroke-width="1.25" /><path d="M0 -5 V-19" fill="none" stroke="#fff3c8" stroke-width="0.75" /></g><g transform="translate(0 0) rotate(0.0)"><path d="M0 0 C-6.0 -8 -6.0 -16 0 -21 C6.0 -16 6.0 -8 0 0Z" fill="url(#violet)" stroke="#283e35" stroke-width="1.25" /><path d="M0 -5 V-15" fill="none" stroke="#fff3c8" stroke-width="0.75" /></g><g transform="translate(0 0) rotate(30.0)"><path d="M0 0 C-6.0 -8 -6.0 -16 0 -21 C6.0 -16 6.0 -8 0 0Z" fill="url(#violet)" stroke="#283e35" stroke-width="1.25" /><path d="M0 -5 V-15" fill="none" stroke="#fff3c8" stroke-width="0.75" /></g><g transform="translate(0 0) rotate(60.0)"><path d="M0 0 C-6.0 -8 -6.0 -16 0 -21 C6.0 -16 6.0 -8 0 0Z" fill="url(#violet)" stroke="#283e35" stroke-width="1.25" /><path d="M0 -5 V-15" fill="none" stroke="#fff3c8" stroke-width="0.75" /></g><g transform="translate(0 0) rotate(90.0)"><path d="M0 0 C-6.0 -8 -6.0 -16 0 -21 C6.0 -16 6.0 -8 0 0Z" fill="url(#violet)" stroke="#283e35" stroke-width="1.25" /><path d="M0 -5 V-15" fill="none" stroke="#fff3c8" stroke-width="0.75" /></g><g transform="translate(0 0) rotate(120.0)"><path d="M0 0 C-6.0 -8 -6.0 -16 0 -21 C6.0 -16 6.0 -8 0 0Z" fill="url(#violet)" stroke="#283e35" stroke-width="1.25" /><path d="M0 -5 V-15" fill="none" stroke="#fff3c8" stroke-width="0.75" /></g><g transform="translate(0 0) rotate(150.0)"><path d="M0 0 C-6.0 -8 -6.0 -16 0 -21 C6.0 -16 6.0 -8 0 0Z" fill="url(#violet)" stroke="#283e35" stroke-width="1.25" /><path d="M0 -5 V-15" fill="none" stroke="#fff3c8" stroke-width="0.75" /></g><g transform="translate(0 0) rotate(180.0)"><path d="M0 0 C-6.0 -8 -6.0 -16 0 -21 C6.0 -16 6.0 -8 0 0Z" fill="url(#violet)" stroke="#283e35" stroke-width="1.25" /><path d="M0 -5 V-15" fill="none" stroke="#fff3c8" stroke-width="0.75" /></g><g transform="translate(0 0) rotate(210.0)"><path d="M0 0 C-6.0 -8 -6.0 -16 0 -21 C6.0 -16 6.0 -8 0 0Z" fill="url(#violet)" stroke="#283e35" stroke-width="1.25" /><path d="M0 -5 V-15" fill="none" stroke="#fff3c8" stroke-width="0.75" /></g><g transform="translate(0 0) rotate(240.0)"><path d="M0 0 C-6.0 -8 -6.0 -16 0 -21 C6.0 -16 6.0 -8 0 0Z" fill="url(#violet)" stroke="#283e35" stroke-width="1.25" /><path d="M0 -5 V-15" fill="none" stroke="#fff3c8" stroke-width="0.75" /></g><g transform="translate(0 0) rotate(270.0)"><path d="M0 0 C-6.0 -8 -6.0 -16 0 -21 C6.0 -16 6.0 -8 0 0Z" fill="url(#violet)" stroke="#283e35" stroke-width="1.25" /><path d="M0 -5 V-15" fill="none" stroke="#fff3c8" stroke-width="0.75" /></g><g transform="translate(0 0) rotate(300.0)"><path d="M0 0 C-6.0 -8 -6.0 -16 0 -21 C6.0 -16 6.0 -8 0 0Z" fill="url(#violet)" stroke="#283e35" stroke-width="1.25" /><path d="M0 -5 V-15" fill="none" stroke="#fff3c8" stroke-width="0.75" /></g><g transform="translate(0 0) rotate(330.0)"><path d="M0 0 C-6.0 -8 -6.0 -16 0 -21 C6.0 -16 6.0 -8 0 0Z" fill="url(#violet)" stroke="#283e35" stroke-width="1.25" /><path d="M0 -5 V-15" fill="none" stroke="#fff3c8" stroke-width="0.75" /></g><path d="M-22.00,-22.00 L-20.89,-19.52 L-18.20,-19.24 L-20.21,-17.42 L-19.65,-14.76 L-22.00,-16.12 L-24.35,-14.76 L-23.79,-17.42 L-25.80,-19.24 L-23.11,-19.52Z" fill="#e4baf9" stroke="#283e35" stroke-width="1.1" /><path d="M23.00,-17.00 L23.83,-15.14 L25.85,-14.93 L24.34,-13.56 L24.76,-11.57 L23.00,-12.59 L21.24,-11.57 L21.66,-13.56 L20.15,-14.93 L22.17,-15.14Z" fill="#c4deff" stroke="#283e35" stroke-width="1.1" /></g></g><g data-host="cotton_candy"><g transform="translate(0.0 7.6) rotate(0.0) scale(0.840)"><ellipse cx="0" cy="35" rx="27" ry="4" fill="#233e2b" opacity=".14" stroke="none" stroke-width="0"/><path d="M-4 32 Q0 17 -3 -5 L4 -5 Q7 13 3 32Z" fill="url(#leaf)" stroke="#283e35" stroke-width="1.7" /><path d="M-1 27 Q3 16 0 4" fill="none" stroke="#a6cd6b" stroke-width="1.5" /><g transform="translate(-1 31) rotate(10)"><path d="M0 0 Q-22.40 -11.20 -28 0 Q-14.0 17.64 0 0Z" fill="url(#leaf)" stroke="#283e35" stroke-width="1.7" /><path d="M-2 1 Q-12.6 0 -23.52 0" fill="none" stroke="#488343" stroke-width="0.8" /></g><g transform="translate(2 32) rotate(168)"><path d="M0 0 Q-24.0 -12.0 -30 0 Q-15.0 18.9 0 0Z" fill="url(#leaf)" stroke="#283e35" stroke-width="1.7" /><path d="M-2 1 Q-13.5 0 -25.2 0" fill="none" stroke="#488343" stroke-width="0.8" /></g><g transform="translate(0 34) rotate(-39)"><path d="M0 0 Q-13.60 -6.80 -17 0 Q-8.5 10.71 0 0Z" fill="url(#leaf)" stroke="#283e35" stroke-width="1.7" /><path d="M-2 1 Q-7.65 0 -14.28 0" fill="none" stroke="#488343" stroke-width="0.8" /></g><path d="M-28 34 Q-19 24 -10 30 Q-1 20 9 30 Q19 23 29 34 Q17 40 0 37 Q-17 40 -28 34Z" fill="url(#leaf)" stroke="#47784c" stroke-width="1.15" /><path d="M-24 33 Q-29 24 -24 19 M24 33 Q29 24 24 19" fill="none" stroke="#9bc774" stroke-width="1.8" /><ellipse cx="-17" cy="-7" rx="15" ry="14.25" fill="url(#hp)" stroke="#283e35" stroke-width="1.4"/><ellipse cx="14" cy="-10" rx="18" ry="17.09" fill="url(#hp)" stroke="#283e35" stroke-width="1.4"/><ellipse cx="-3" cy="-22" rx="18" ry="17.09" fill="url(#hp)" stroke="#283e35" stroke-width="1.4"/><ellipse cx="0" cy="-4" rx="20" ry="19.0" fill="url(#hp)" stroke="#283e35" stroke-width="1.4"/><path d="M-27 -8 Q-28 -18 -19 -18 M-15 -24 Q-12 -35 -2 -33" fill="none" stroke="#fff1ec" stroke-width="2" /><ellipse cx="-6" cy="-9" rx="2.4" ry="4" fill="#283e35" stroke="none" stroke-width="1.4"/><ellipse cx="-6.65" cy="-10.6" rx="0.75" ry="1.1" fill="#fffbed" stroke="none" stroke-width="1.4"/><ellipse cx="6" cy="-9" rx="2.4" ry="4" fill="#283e35" stroke="none" stroke-width="1.4"/><ellipse cx="5.35" cy="-10.6" rx="0.75" ry="1.1" fill="#fffbed" stroke="none" stroke-width="1.4"/><path d="M-4 0 q4 3 8 0" fill="none" stroke="#283e35" stroke-width="1.4" /></g></g><g data-organ="graft-collar"><path d="M-20 35 Q-8 29 0 33 Q9 28 20 34" fill="none" stroke="#283e35" stroke-width="3.6"/><path d="M-20 35 Q-8 29 0 33 Q9 28 20 34" fill="none" stroke="#6fa553" stroke-width="2"/><path d="M-14.0 32.0 q-5 -6 -1 -10 q5 3 1 10Z" fill="url(#violet)" stroke="#283e35" stroke-width="0.9" transform="rotate(-30 -14.0 32.0)"/><path d="M0.0 30.0 q-5 -6 -1 -10 q5 3 1 10Z" fill="url(#violet)" stroke="#283e35" stroke-width="0.9" transform="rotate(0 0.0 30.0)"/><path d="M14.0 32.0 q-5 -6 -1 -10 q5 3 1 10Z" fill="url(#violet)" stroke="#283e35" stroke-width="0.9" transform="rotate(30 14.0 32.0)"/><circle cx="1" cy="32" r="2.2" fill="#fff2a8" stroke="#283e35" stroke-width="0.8"/></g></g></svg>