<svg xmlns="http://www.w3.org/2000/svg" width="192" height="224" viewBox="-48 -60 96 112" data-plant-kind="pair_cyclone_grass_golden_milk" data-facing="right" data-model-archetype="cyclone_grass" data-geometry-signature="a6c6cbe00100bf6d9ccad93c893e3b1e"><defs><linearGradient id="skin" x1=".2" y1="0" x2=".8" y2="1"><stop stop-color="#fffdf5"/><stop offset="1" stop-color="#e6dcc2"/></linearGradient><linearGradient id="lf" x1=".2" y1="0" x2=".8" y2="1"><stop stop-color="#88b758"/><stop offset="1" stop-color="#3d774b"/></linearGradient><linearGradient id="gold" x1=".2" y1="0" x2=".8" y2="1"><stop stop-color="#fbe4a0"/><stop offset="1" stop-color="#d6953f"/></linearGradient><linearGradient id="bark" x1=".2" y1="0" x2=".8" y2="1"><stop stop-color="#dcb474"/><stop offset="1" stop-color="#aa783f"/></linearGradient><linearGradient id="milk" x1=".2" y1="0" x2=".8" y2="1"><stop stop-color="#ffffff"/><stop offset="1" stop-color="#e9e2d0"/></linearGradient><mask id="mk" maskUnits="userSpaceOnUse" x="-80" y="-100" width="170" height="190"><path d="M-9 31 Q-35 1 -9 -12 Q20 -30 32 -11 Q-1 -26 -6 -2 Q-8 13 9 17 Q-1 4 13 -2 Q34 -11 38 6 Q21 -1 16 13 Q10 35 -9 31Z" fill="#fff" stroke="#000" stroke-width="2.6"/><ellipse cx="-4.0" cy="21.8" rx="4.3" ry="6.2" fill="#000"/><ellipse cx="4.0" cy="21.8" rx="4.3" ry="6.2" fill="#000"/><ellipse cx="0.0" cy="31.9" rx="5.5" ry="3.4" fill="#000"/></mask></defs><g stroke-linejoin="round" stroke-linecap="round"><ellipse cx="0" cy="38" rx="29.5" ry="4" fill="#233e2b" opacity=".16"/><g data-host="cyclone_grass"><g transform="translate(0.0 9.0) rotate(0.0) scale(0.800)"><g data-part="base"><ellipse cx="0" cy="35" rx="27" ry="4" fill="#233e2b" opacity=".14" stroke="none" stroke-width="0"/><g transform="translate(-1 31) rotate(19)"><path d="M0 0 Q-20.0 -10.0 -25 0 Q-12.5 15.75 0 0Z" fill="url(#lf)" stroke="#283e35" stroke-width="1.7"/><path d="M-2 1 Q-11.25 0 -21.0 0" fill="none" stroke="#488343" stroke-width="0.8"/></g><g transform="translate(2 32) rotate(156)"><path d="M0 0 Q-21.6 -10.8 -27 0 Q-13.5 17.01 0 0Z" fill="url(#lf)" stroke="#283e35" stroke-width="1.7"/><path d="M-2 1 Q-12.15 0 -22.68 0" fill="none" stroke="#488343" stroke-width="0.8"/></g><g transform="translate(0 34) rotate(-45)"><path d="M0 0 Q-13.60 -6.80 -17 0 Q-8.5 10.71 0 0Z" fill="url(#lf)" stroke="#283e35" stroke-width="1.7"/><path d="M-2 1 Q-7.65 0 -14.28 0" fill="none" stroke="#488343" stroke-width="0.8"/></g><path d="M-26 28 Q-17 18 -9 27 Q0 16 8 27 Q17 18 28 29 L23 37 Q11 33 3 38 Q-7 33 -19 38Z" fill="url(#bark)" stroke="#76573d" stroke-width="1.2"/><path d="M-17 29 Q-12 34 -8 37 M0 27 V37 M15 29 Q10 34 8 37" fill="none" stroke="#c9a16b" stroke-width="1.0"/><g transform="translate(24 29) rotate(142)"><path d="M0 0 Q-11.20 -5.60 -14 0 Q-7.0 8.82 0 0Z" fill="url(#lf)" stroke="#283e35" stroke-width="1.7"/><path d="M-2 1 Q-6.3 0 -11.76 0" fill="none" stroke="#488343" stroke-width="0.8"/></g></g><path d="M-9 31 Q-35 1 -9 -12 Q20 -30 32 -11 Q-1 -26 -6 -2 Q-8 13 9 17 Q-1 4 13 -2 Q34 -11 38 6 Q21 -1 16 13 Q10 35 -9 31Z" fill="url(#skin)" stroke="#283e35" stroke-width="1.7"/><path d="M-27 -20 Q-40 -4 -29 14 M16 -34 Q34 -32 38 -22" fill="none" stroke="#fefbf2" stroke-width="2"/><ellipse cx="-4" cy="22" rx="2.4" ry="4" fill="#283e35" stroke="none" stroke-width="1.4"/><ellipse cx="-4.65" cy="20.4" rx="0.75" ry="1.1" fill="#fffbed" stroke="none" stroke-width="1.4"/><ellipse cx="4" cy="22" rx="2.4" ry="4" fill="#283e35" stroke="none" stroke-width="1.4"/><ellipse cx="3.35" cy="20.4" rx="0.75" ry="1.1" fill="#fffbed" stroke="none" stroke-width="1.4"/><path d="M-4 31 q4 3 8 0" fill="none" stroke="#283e35" stroke-width="1.4"/><g data-organ="pattern" mask="url(#mk)"><path d="M-21.0 -14.5 L-18.7 -13.5 Q-15.3 -0.5 -11.9 -13.5 L-7.3 -13.5 Q-3.9 -2.6 -0.5 -13.5 L4.1 -13.5 Q7.5 -2.9 10.9 -13.5 L15.5 -13.5 Q18.9 1.1 22.3 -13.5 L26.9 -13.5 Q30.3 -4.1 33.7 -13.5 L36.0 -19.5 L-21.0 -19.5Z" fill="#fffdf5" opacity="0.80"/></g><g data-organ="mood"><path d="M-6.9 17.0 Q-4.0 14.6 -1.1 17.0" fill="none" stroke="#283e35" stroke-width="1.1"/><ellipse cx="-5.3" cy="27.2" rx="2.4" ry="1.4" fill="#f29a9a" opacity=".55"/><path d="M1.1 17.0 Q4.0 14.6 6.9 17.0" fill="none" stroke="#283e35" stroke-width="1.1"/><ellipse cx="5.3" cy="27.2" rx="2.4" ry="1.4" fill="#f29a9a" opacity=".55"/></g></g></g><g data-ingredient="golden_milk"><g transform="translate(0.0 23.8) rotate(0.0) scale(0.883)"><path d="M-12 0 Q-14 -6 -9 -7 Q-8 -13 -3 -11 Q0 -17 4 -12 Q9 -14 10 -8 Q15 -6 12 0 Q0 3 -12 0Z" fill="url(#milk)" stroke="#283e35" stroke-width="1.3" /><ellipse cx="-6" cy="-15" rx="1.6" ry="2" fill="#fffdf5" stroke="#283e35" stroke-width="0.6"/><ellipse cx="7" cy="-17" rx="1.2" ry="1.5" fill="#fffdf5" stroke="#283e35" stroke-width="0.5"/><g transform="translate(9 -10) rotate(30) scale(0.42)"><path d="M-2 -22 L2 -22 L2 2 L-2 2Z" fill="#b8862e" stroke="#283e35" stroke-width="1" /><path d="M-6 -30 Q0 -34 6 -30 L6 -24 Q0 -21 -6 -24Z" fill="url(#gold)" stroke="#283e35" stroke-width="1" /><path d="M-8 2 L8 2 L7 13 Q0 21 -7 13Z" fill="url(#gold)" stroke="#283e35" stroke-width="1.3" /><path d="M-4 5 Q0 13 4 5" fill="none" stroke="#fff2b3" stroke-width="1" /></g></g></g><g data-element="milk"><path d="M21.6 20.3 q-4 5 0 7 q4 -2 0 -7Z" fill="#fffdf5" stroke="#283e35" stroke-width="0.7"/><circle cx="26.1" cy="27.5" r="1.3" fill="#fffdf5" stroke="#283e35" stroke-width="0.4"/></g></g></svg>