<svg xmlns="http://www.w3.org/2000/svg" width="192" height="224" viewBox="-48 -60 96 112" data-plant-kind="pair_potato_mine_pulse_bulb" data-facing="right" data-model-archetype="pulse_bulb" data-geometry-signature="67af7cfea5df5b9c7afd5f5a374c5205"><defs><linearGradient id="skin" x1=".2" y1="0" x2=".8" y2="1"><stop stop-color="#f6dc99"/><stop offset="1" stop-color="#cf903f"/></linearGradient><linearGradient id="lf" x1=".2" y1="0" x2=".8" y2="1"><stop stop-color="#a4d48a"/><stop offset="1" stop-color="#3c7a63"/></linearGradient><linearGradient id="rose" x1=".2" y1="0" x2=".8" y2="1"><stop stop-color="#f3b6bd"/><stop offset="1" stop-color="#c36282"/></linearGradient><mask id="mk" maskUnits="userSpaceOnUse" x="-80" y="-100" width="170" height="190"><path d="M-14 13 Q-29 -4 -22 -21 Q-15 -38 2 -35 Q25 -34 26 -14 Q27 3 12 14 L8 21 H-9Z" fill="#fff" stroke="#000" stroke-width="2.6"/><ellipse cx="-6.0" cy="-13.2" rx="4.3" ry="6.2" fill="#000"/><ellipse cx="6.0" cy="-13.2" rx="4.3" ry="6.2" fill="#000"/><ellipse cx="0.0" cy="-3.1" rx="5.5" ry="3.4" fill="#000"/></mask></defs><g stroke-linejoin="round" stroke-linecap="round"><ellipse cx="0" cy="38" rx="29.5" ry="4" fill="#233e2b" opacity=".16"/><g data-host="pulse_bulb"><g transform="translate(0.0 9.0) rotate(0.0) scale(0.800)"><g data-part="base"><ellipse cx="0" cy="35" rx="27" ry="4" fill="#233e2b" opacity=".14" stroke="none" stroke-width="0"/><path d="M-4 32 Q0 17 -3 -5 L4 -5 Q7 13 3 32Z" fill="url(#lf)" stroke="#283e35" stroke-width="1.7"/><path d="M-1 27 Q3 16 0 4" fill="none" stroke="#a6cd6b" stroke-width="1.5"/><g transform="translate(-1 31) rotate(25)"><path d="M0 0 Q-24.8 -12.4 -31 0 Q-15.5 19.53 0 0Z" fill="url(#lf)" stroke="#283e35" stroke-width="1.7"/><path d="M-2 1 Q-13.95 0 -26.04 0" fill="none" stroke="#488343" stroke-width="0.8"/></g><g transform="translate(2 32) rotate(148)"><path d="M0 0 Q-16.8 -8.4 -21 0 Q-10.5 13.23 0 0Z" fill="url(#lf)" stroke="#283e35" stroke-width="1.7"/><path d="M-2 1 Q-9.45 0 -17.64 0" fill="none" stroke="#488343" stroke-width="0.8"/></g><g transform="translate(0 34) rotate(-49)"><path d="M0 0 Q-12.8 -6.4 -16 0 Q-8.0 10.08 0 0Z" fill="url(#lf)" stroke="#283e35" stroke-width="1.7"/><path d="M-2 1 Q-7.2 0 -13.44 0" fill="none" stroke="#488343" stroke-width="0.8"/></g><path d="M-28 34 Q-19 24 -10 30 Q-1 20 9 30 Q19 23 29 34 Q17 40 0 37 Q-17 40 -28 34Z" fill="url(#lf)" stroke="#47784c" stroke-width="1.15"/><g transform="translate(-24 29) rotate(38)"><path d="M0 0 Q-11.20 -5.60 -14 0 Q-7.0 8.82 0 0Z" fill="url(#lf)" stroke="#283e35" stroke-width="1.7"/><path d="M-2 1 Q-6.3 0 -11.76 0" fill="none" stroke="#488343" stroke-width="0.8"/></g></g><path d="M-14 13 Q-29 -4 -22 -21 Q-15 -38 2 -35 Q25 -34 26 -14 Q27 3 12 14 L8 21 H-9Z" fill="url(#skin)" stroke="#283e35" stroke-width="1.7"/><ellipse cx="-6" cy="-13" rx="2.4" ry="4" fill="#283e35" stroke="none" stroke-width="1.4"/><ellipse cx="-6.65" cy="-14.6" rx="0.75" ry="1.1" fill="#fffbed" stroke="none" stroke-width="1.4"/><ellipse cx="6" cy="-13" rx="2.4" ry="4" fill="#283e35" stroke="none" stroke-width="1.4"/><ellipse cx="5.35" cy="-14.6" rx="0.75" ry="1.1" fill="#fffbed" stroke="none" stroke-width="1.4"/><path d="M-4 -4 q4 3 8 0" fill="none" stroke="#283e35" stroke-width="1.4"/><path d="M-9 15 H10 V22 H-9Z" fill="#7f9980" stroke="#283e35" stroke-width="1.7"/><path d="M-15 -21 Q-17 -11 -12 -7" fill="none" stroke="#faeac2" stroke-width="2"/><path d="M-25 -34 l-4 -5 M25 -35 l4 -6 M0 -42 v-6" fill="none" stroke="#d0a451" stroke-width="2"/><g data-organ="pattern" mask="url(#mk)"><ellipse cx="14.6" cy="3.8" rx="1.8" ry="1.3" fill="#f6e2c2" stroke="none" stroke-width="0.0" opacity="0.36"/><ellipse cx="14.4" cy="5.0" rx="2.2" ry="1.6" fill="#66431c" stroke="none" stroke-width="0.0" opacity="0.36"/><ellipse cx="12.8" cy="7.1" rx="2.0" ry="1.5" fill="#66431c" stroke="none" stroke-width="0.0" opacity="0.36"/><ellipse cx="-0.3" cy="-14.0" rx="2.0" ry="1.5" fill="#f6e2c2" stroke="none" stroke-width="0.0" opacity="0.36"/><ellipse cx="-8.8" cy="-23.1" rx="1.9" ry="1.4" fill="#66431c" stroke="none" stroke-width="0.0" opacity="0.36"/><ellipse cx="-5.9" cy="-3.2" rx="1.5" ry="1.1" fill="#66431c" stroke="none" stroke-width="0.0" opacity="0.36"/><ellipse cx="16.9" cy="8.5" rx="1.1" ry="0.9" fill="#f6e2c2" stroke="none" stroke-width="0.0" opacity="0.36"/><ellipse cx="-15.4" cy="-3.9" rx="1.2" ry="0.9" fill="#66431c" stroke="none" stroke-width="0.0" opacity="0.36"/><ellipse cx="-4.7" cy="-26.5" rx="2.1" ry="1.6" fill="#66431c" stroke="none" stroke-width="0.0" opacity="0.36"/></g></g></g><g data-ingredient="potato_mine"><g transform="translate(0.0 -15.0) rotate(0.0) scale(0.883)"><path d="M-2 0 V-8 H2 V0Z" fill="#908979" stroke="#283e35" stroke-width="1" /><ellipse cx="0" cy="-10" rx="5" ry="4" fill="url(#rose)" stroke="#283e35" stroke-width="1.1"/><ellipse cx="-1" cy="-11" rx="1.4" ry="1" fill="#fff4d3" stroke="none" stroke-width="1.4"/></g></g><g data-element="blast"><path d="M21.6 -17.9 L22.7 -15.0 L25.6 -14.0 L22.7 -12.9 L21.6 -10.0 L20.6 -12.9 L17.7 -14.0 L20.6 -15.0Z" fill="#ffd76a" stroke="#283e35" stroke-width="0.6"/><circle cx="21.6" cy="-14.0" r="1.6" fill="#fff6d0"/><circle cx="16.2" cy="-11.3" r="2.0" fill="#c9c3b4" opacity=".7"/></g></g></svg>