<svg xmlns="http://www.w3.org/2000/svg" width="192" height="224" viewBox="-48 -60 96 112" data-plant-kind="pair_nether_shroom_vine_emperor" data-facing="right" data-model-archetype="vine_emperor" data-geometry-signature="dbb053ef6ea8c5d97fd949d08a26ec99"><defs><linearGradient id="skin" x1=".2" y1="0" x2=".8" y2="1"><stop stop-color="#6f6a90"/><stop offset="1" stop-color="#30324a"/></linearGradient><linearGradient id="lf" x1=".2" y1="0" x2=".8" y2="1"><stop stop-color="#9aa88a"/><stop offset="1" stop-color="#4c4f6d"/></linearGradient><linearGradient id="gold" x1=".2" y1="0" x2=".8" y2="1"><stop stop-color="#fbe4a0"/><stop offset="1" stop-color="#d6953f"/></linearGradient><linearGradient id="bark" x1=".2" y1="0" x2=".8" y2="1"><stop stop-color="#dcb474"/><stop offset="1" stop-color="#aa783f"/></linearGradient><linearGradient id="night" x1=".2" y1="0" x2=".8" y2="1"><stop stop-color="#6e6b88"/><stop offset="1" stop-color="#35394e"/></linearGradient><mask id="mk" maskUnits="userSpaceOnUse" x="-80" y="-100" width="170" height="190"><ellipse cx="-19" cy="-15" rx="17" ry="14.45" fill="#fff" stroke="#000" stroke-width="2.6"/><ellipse cx="18" cy="-19" rx="19" ry="16.15" fill="#fff" stroke="#000" stroke-width="2.6"/><ellipse cx="0" cy="-31" rx="21" ry="17.84" fill="#fff" stroke="#000" stroke-width="2.6"/><ellipse cx="0" cy="-8" rx="20" ry="17.0" fill="#fff" stroke="#000" stroke-width="2.6"/><ellipse cx="-6.0" cy="-9.0" rx="4.3" ry="5.9" fill="#000"/><ellipse cx="6.0" cy="-9.0" rx="4.3" ry="5.9" fill="#000"/><ellipse cx="0.0" cy="0.7" rx="5.5" ry="3.4" fill="#000"/></mask></defs><g stroke-linejoin="round" stroke-linecap="round"><ellipse cx="0" cy="38" rx="29.5" ry="4" fill="#233e2b" opacity=".16"/><g data-host="vine_emperor"><g transform="translate(0.0 9.0) rotate(0.0) scale(0.800)"><g data-part="base"><ellipse cx="0" cy="35" rx="27" ry="4" fill="#233e2b" opacity=".14" stroke="none" stroke-width="0"/><g transform="translate(-1 31) rotate(16)"><path d="M0 0 Q-17.6 -8.8 -22 0 Q-11.0 13.86 0 0Z" fill="url(#lf)" stroke="#283e35" stroke-width="1.7"/><path d="M-2 1 Q-9.9 0 -18.48 0" fill="none" stroke="#488343" stroke-width="0.8"/></g><g transform="translate(2 32) rotate(160)"><path d="M0 0 Q-19.20 -9.60 -24 0 Q-12.0 15.12 0 0Z" fill="url(#lf)" stroke="#283e35" stroke-width="1.7"/><path d="M-2 1 Q-10.8 0 -20.16 0" fill="none" stroke="#488343" stroke-width="0.8"/></g><g transform="translate(0 34) rotate(-43)"><path d="M0 0 Q-12.8 -6.4 -16 0 Q-8.0 10.08 0 0Z" fill="url(#lf)" stroke="#283e35" stroke-width="1.7"/><path d="M-2 1 Q-7.2 0 -13.44 0" fill="none" stroke="#488343" stroke-width="0.8"/></g><path d="M-26 28 Q-17 18 -9 27 Q0 16 8 27 Q17 18 28 29 L23 37 Q11 33 3 38 Q-7 33 -19 38Z" fill="url(#bark)" stroke="#76573d" stroke-width="1.2"/><path d="M-17 29 Q-12 34 -8 37 M0 27 V37 M15 29 Q10 34 8 37" fill="none" stroke="#c9a16b" stroke-width="1.0"/><g transform="translate(-24 29) rotate(38)"><path d="M0 0 Q-11.20 -5.60 -14 0 Q-7.0 8.82 0 0Z" fill="url(#lf)" stroke="#283e35" stroke-width="1.7"/><path d="M-2 1 Q-6.3 0 -11.76 0" fill="none" stroke="#488343" stroke-width="0.8"/></g></g><path d="M-10 33 Q-4 8 -10 -17 L10 -17 Q3 11 14 33 L4 30 L-1 35 L-5 30Z" fill="url(#bark)" stroke="#283e35" stroke-width="1.7"/><path d="M-4 25 Q2 13 -1 2" fill="none" stroke="#745738" stroke-width="1"/><ellipse cx="-19" cy="-15" rx="17" ry="14.45" fill="url(#skin)" stroke="#283e35" stroke-width="1.4"/><ellipse cx="18" cy="-19" rx="19" ry="16.15" fill="url(#skin)" stroke="#283e35" stroke-width="1.4"/><ellipse cx="0" cy="-31" rx="21" ry="17.84" fill="url(#skin)" stroke="#283e35" stroke-width="1.4"/><ellipse cx="0" cy="-8" rx="20" ry="17.0" fill="url(#skin)" stroke="#283e35" stroke-width="1.4"/><ellipse cx="-6" cy="-9" rx="2.4" ry="4" fill="#283e35" stroke="none" stroke-width="1.4"/><ellipse cx="-6.65" cy="-10.6" rx="0.75" ry="1.1" fill="#fffbed" stroke="none" stroke-width="1.4"/><ellipse cx="6" cy="-9" rx="2.4" ry="4" fill="#283e35" stroke="none" stroke-width="1.4"/><ellipse cx="5.35" cy="-10.6" rx="0.75" ry="1.1" fill="#fffbed" stroke="none" stroke-width="1.4"/><path d="M-11 -15 l8 2 M3 -13 l8 -2" fill="none" stroke="#283e35" stroke-width="1.8"/><path d="M-4 0 q4 -1 8 0" fill="none" stroke="#283e35" stroke-width="1.4"/><path d="M-22 -30 L-18 -45 L-10 -36 L0 -48 L10 -36 L18 -45 L22 -30Z" fill="url(#gold)" stroke="#283e35" stroke-width="1.7"/><g data-organ="pattern" mask="url(#mk)"><path d="M17.4 -25.7 L18.0 -24.3 L19.4 -23.7 L18.0 -23.1 L17.4 -21.7 L16.8 -23.1 L15.4 -23.7 L16.8 -24.3Z" fill="#fff6c8" opacity="0.90"/><path d="M-18.4 -37.2 L-17.5 -35.0 L-15.2 -34.1 L-17.5 -33.1 L-18.4 -30.9 L-19.4 -33.1 L-21.6 -34.1 L-19.4 -35.0Z" fill="#fff6c8" opacity="0.90"/><path d="M3.9 -19.0 L4.9 -16.8 L7.1 -15.9 L4.9 -14.9 L3.9 -12.7 L3.0 -14.9 L0.7 -15.9 L3.0 -16.8Z" fill="#fff6c8" opacity="0.90"/><path d="M9.7 -8.5 L10.4 -7.0 L11.8 -6.4 L10.4 -5.8 L9.7 -4.3 L9.1 -5.8 L7.7 -6.4 L9.1 -7.0Z" fill="#fff6c8" opacity="0.90"/><path d="M2.6 -35.3 L3.2 -33.8 L4.7 -33.1 L3.2 -32.5 L2.6 -31.0 L1.9 -32.5 L0.4 -33.1 L1.9 -33.8Z" fill="#fff6c8" opacity="0.90"/></g><g data-organ="mood"><path d="M-10.2 -15.5 L-3.6 -12.2 L-4.2 -14.2 Z" fill="#283e35" stroke="#283e35" stroke-width="0.6"/><ellipse cx="-6.0" cy="-9.0" rx="2.8" ry="4.4" fill="none" stroke="#ff5a4a" stroke-width="0.8" opacity=".85"/><path d="M10.2 -15.5 L3.6 -12.2 L4.2 -14.2 Z" fill="#283e35" stroke="#283e35" stroke-width="0.6"/><ellipse cx="6.0" cy="-9.0" rx="2.8" ry="4.4" fill="none" stroke="#ff5a4a" stroke-width="0.8" opacity=".85"/></g></g></g><g data-ingredient="nether_shroom"><g transform="translate(0.0 -25.6) rotate(0.0) scale(0.883)"><path d="M-16 0 L-13 -7.2 L-8.0 -6.0 L-4.0 -12 L0 -7.4 L4.8 -12.6 L8.8 -6.0 L14 -8.4 L16 0 Q0 4 -16 0Z" fill="url(#night)" stroke="#283e35" stroke-width="1.7" /><path d="M-11.2 -4.2 Q-9.6 -10.2 -1.6 -11.4" fill="none" stroke="#ffffff" stroke-width="1.6" opacity=".4"/><ellipse cx="-5.6" cy="-6.7" rx="3.2" ry="1.6" fill="#fff1dc" stroke="none" stroke-width="0"/><ellipse cx="5.6" cy="-7.1" rx="2.2" ry="1.6" fill="#fff1dc" stroke="none" stroke-width="0"/><path d="M-14 -7.2 L-20 -16.8 L-9 -11.4Z M14 -7.2 L20 -16.8 L9 -11.4Z" fill="url(#night)" stroke="#283e35" stroke-width="1" /></g></g><g data-element="shadow"><path d="M21.6 -24.6 q-6 -4 -2 -10 q5 -3 4 3 q-1 4 -4 2" fill="none" stroke="#8e7bc4" stroke-width="1.6"/><path d="M27.0 -33.6 a4 4 0 1 0 4 5 a3 3 0 1 1 -4 -5Z" fill="#d9ccff" stroke="#283e35" stroke-width="0.6"/></g></g></svg>