<svg xmlns="http://www.w3.org/2000/svg" width="192" height="224" viewBox="-48 -60 96 112" data-plant-kind="pair_chain_lotus_chaos_shroom" data-facing="right" data-model-archetype="chaos_shroom" data-geometry-signature="16af6d003cd2c6a801a192a33f1a4c70"><defs><linearGradient id="skin" x1=".2" y1="0" x2=".8" y2="1"><stop stop-color="#f4bdb8"/><stop offset="1" stop-color="#c66a77"/></linearGradient><linearGradient id="lf" x1=".2" y1="0" x2=".8" y2="1"><stop stop-color="#a4d48a"/><stop offset="1" stop-color="#3c7a63"/></linearGradient><linearGradient id="gold" x1=".2" y1="0" x2=".8" y2="1"><stop stop-color="#fbe4a0"/><stop offset="1" stop-color="#d6953f"/></linearGradient><linearGradient id="cream" x1=".2" y1="0" x2=".8" y2="1"><stop stop-color="#fff3d4"/><stop offset="1" stop-color="#d9be99"/></linearGradient><linearGradient id="mint" x1=".2" y1="0" x2=".8" y2="1"><stop stop-color="#bfe8cb"/><stop offset="1" stop-color="#599993"/></linearGradient><mask id="mk" maskUnits="userSpaceOnUse" x="-80" y="-100" width="170" height="190"><path d="M-25 -5 C-27 -23 -17 -39 0 -37 C18 -39 28 -20 25 -5 Q0 2 -25 -5Z" fill="#fff" stroke="#000" stroke-width="2.6"/><path d="M-28 -14 L-38 -24 L-28 -31 L-34 -43 L-21 -35 M28 -14 L38 -24 L28 -31 L34 -43 L21 -35" fill="#fff" stroke="#000" stroke-width="2.6"/><ellipse cx="-6.0" cy="13.0" rx="7.4" ry="7.6" fill="#000"/><ellipse cx="6.0" cy="13.0" rx="7.4" ry="7.6" fill="#000"/><ellipse cx="0.0" cy="25.0" rx="5.5" ry="3.4" fill="#000"/></mask></defs><g stroke-linejoin="round" stroke-linecap="round"><ellipse cx="0" cy="38" rx="28.6" ry="4" fill="#233e2b" opacity=".16"/><g data-ingredient="chain_lotus"><g transform="translate(0.0 38.0) rotate(0.0) scale(0.912)"><ellipse cx="0" cy="2" rx="30" ry="6" fill="url(#mint)" stroke="#283e35" stroke-width="1.3"/><g transform="translate(-13.15 4) rotate(-70.0)"><path d="M0 0 C-8 -8 -8 -15 0 -20 C8 -15 8 -8 0 0Z" fill="url(#gold)" stroke="#283e35" stroke-width="1.25" /><path d="M0 -5 V-14" fill="none" stroke="#fff3c8" stroke-width="0.75" /></g><g transform="translate(-9.36 4) rotate(-42.0)"><path d="M0 0 C-8 -8 -8 -15 0 -20 C8 -15 8 -8 0 0Z" fill="url(#gold)" stroke="#283e35" stroke-width="1.25" /><path d="M0 -5 V-14" fill="none" stroke="#fff3c8" stroke-width="0.75" /></g><g transform="translate(-3.38 4) rotate(-14.0)"><path d="M0 0 C-8 -8 -8 -15 0 -20 C8 -15 8 -8 0 0Z" fill="url(#gold)" stroke="#283e35" stroke-width="1.25" /><path d="M0 -5 V-14" fill="none" stroke="#fff3c8" stroke-width="0.75" /></g><g transform="translate(3.38 4) rotate(14.0)"><path d="M0 0 C-8 -8 -8 -15 0 -20 C8 -15 8 -8 0 0Z" fill="url(#gold)" stroke="#283e35" stroke-width="1.25" /><path d="M0 -5 V-14" fill="none" stroke="#fff3c8" stroke-width="0.75" /></g><g transform="translate(9.36 4) rotate(42.0)"><path d="M0 0 C-8 -8 -8 -15 0 -20 C8 -15 8 -8 0 0Z" fill="url(#gold)" stroke="#283e35" stroke-width="1.25" /><path d="M0 -5 V-14" fill="none" stroke="#fff3c8" stroke-width="0.75" /></g><g transform="translate(13.15 4) rotate(70.0)"><path d="M0 0 C-8 -8 -8 -15 0 -20 C8 -15 8 -8 0 0Z" fill="url(#gold)" stroke="#283e35" stroke-width="1.25" /><path d="M0 -5 V-14" fill="none" stroke="#fff3c8" stroke-width="0.75" /></g><ellipse cx="0" cy="2" rx="10" ry="3.5" fill="#ffe9a8" stroke="#283e35" stroke-width="0.9"/><ellipse cx="-26.0" cy="6" rx="4.5" ry="2.6" fill="none" stroke="#a87c42" stroke-width="1.6"/><ellipse cx="-15.6" cy="6" rx="4.5" ry="2.6" fill="none" stroke="#a87c42" stroke-width="1.6"/><ellipse cx="-5.19" cy="6" rx="4.5" ry="2.6" fill="none" stroke="#a87c42" stroke-width="1.6"/><ellipse cx="5.20" cy="6" rx="4.5" ry="2.6" fill="none" stroke="#a87c42" stroke-width="1.6"/><ellipse cx="15.60" cy="6" rx="4.5" ry="2.6" fill="none" stroke="#a87c42" stroke-width="1.6"/><ellipse cx="26.0" cy="6" rx="4.5" ry="2.6" fill="none" stroke="#a87c42" stroke-width="1.6"/></g></g><g data-host="chaos_shroom"><g transform="translate(0.0 6.2) rotate(0.0) scale(0.880)"><ellipse cx="0" cy="35" rx="22" ry="4" fill="#233e2b" stroke="none" stroke-width="1.4" opacity=".14"/><path d="M-10 -6 Q-4 16 -14 28 Q-19 36 -5 35 L8 35 Q19 36 12 28 Q6 16 11 -6Z" fill="url(#cream)" stroke="#283e35" stroke-width="1.7"/><path d="M-10 -2 Q-3 21 -13 30 L-7 33 Q0 11 -2 -2Z" fill="#d4c297" stroke="none" stroke-width="1.7"/><ellipse cx="0" cy="-3" rx="25" ry="8" fill="#6d4e5b" stroke="#283e35" stroke-width="1.4"/><path d="M-18 -3 L-6 1 M-8 -4 L-2 2 M8 -4 L3 2 M18 -3 L7 1" fill="none" stroke="#e9caba" stroke-width="1"/><path d="M-25 -5 C-27 -23 -17 -39 0 -37 C18 -39 28 -20 25 -5 Q0 2 -25 -5Z" fill="url(#skin)" stroke="#283e35" stroke-width="2"/><path d="M-28 -14 L-38 -24 L-28 -31 L-34 -43 L-21 -35 M28 -14 L38 -24 L28 -31 L34 -43 L21 -35" fill="url(#skin)" stroke="#283e35" stroke-width="1.1"/><path d="M-19 -12 Q-19 -28 -8 -31" fill="none" stroke="#ffffff" stroke-width="2" opacity=".32"/><path d="M-13.00,-28.00 L-11.34,-24.28 L-7.29,-23.85 L-10.32,-21.13 L-9.47,-17.15 L-13.00,-19.18 L-16.53,-17.15 L-15.68,-21.13 L-18.71,-23.85 L-14.66,-24.28Z" fill="#ffe393" stroke="#283e35" stroke-width="1.1"/><path d="M6 -30 q13 -3 12 6 q0 5 -6 6 v4 M12 -10 v1" fill="none" stroke="#b5efdd" stroke-width="2.5"/><ellipse cx="-6" cy="13" rx="4" ry="5" fill="#eee3c9" stroke="#283e35" stroke-width="1"/><path d="M-6 10 q-5 0 -3 5 q4 5 6 0 q1 -4 -3 -3 q-2 1 0 2" fill="none" stroke="#ae6174" stroke-width="1.1"/><ellipse cx="6" cy="13" rx="4" ry="5" fill="#eee3c9" stroke="#283e35" stroke-width="1"/><path d="M6 10 q-5 0 -3 5 q4 5 6 0 q1 -4 -3 -3 q-2 1 0 2" fill="none" stroke="#ae6174" stroke-width="1.1"/><path d="M-3 24 q3 2 6 0" fill="none" stroke="#283e35" stroke-width="1.3"/><g data-organ="pattern" mask="url(#mk)"><path d="M-37.0 -35.8 Q-0.2 -33.4 36.5 -35.8" fill="none" stroke="#fff4d5" stroke-width="1.6" opacity="0.39"/><path d="M-37.0 -27.2 Q-0.2 -24.8 36.5 -27.2" fill="none" stroke="#fff4d5" stroke-width="1.6" opacity="0.39"/><path d="M-37.0 -18.5 Q-0.2 -16.1 36.5 -18.5" fill="none" stroke="#fff4d5" stroke-width="1.6" opacity="0.39"/><path d="M-37.0 -9.9 Q-0.2 -7.5 36.5 -9.9" fill="none" stroke="#fff4d5" stroke-width="1.6" opacity="0.39"/></g><g data-organ="mood"><path d="M-13.6 6.7 L-1.6 7.8" fill="none" stroke="#283e35" stroke-width="1.8"/><path d="M13.6 6.7 L1.6 7.8" fill="none" stroke="#283e35" stroke-width="1.8"/></g></g></g><g data-element="shock"><path d="M15.0 -28.4 l-4 7 h3 l-2 7 l7 -9 h-3 l3 -5Z" fill="#ffe36a" stroke="#283e35" stroke-width="0.8" transform="scale(1)"/><path d="M20.3 -19.6 L20.8 -18.2 L22.3 -17.6 L20.8 -17.1 L20.3 -15.7 L19.7 -17.1 L18.3 -17.6 L19.7 -18.2Z" fill="#9fe8ff" stroke="#283e35" stroke-width="0.6"/></g></g></svg>