<svg xmlns="http://www.w3.org/2000/svg" width="192" height="224" viewBox="-48 -60 96 112" data-plant-kind="pair_umbrella_leaf_void_shroom" data-facing="right" data-model-archetype="void_shroom" data-geometry-signature="8a0d500283d135b7113b30e93968366b"><defs><linearGradient id="skin" x1=".2" y1="0" x2=".8" y2="1"><stop stop-color="#727780"/><stop offset="1" stop-color="#36434e"/></linearGradient><linearGradient id="lf" x1=".2" y1="0" x2=".8" y2="1"><stop stop-color="#9aa88a"/><stop offset="1" stop-color="#4c4f6d"/></linearGradient><linearGradient id="leaf" x1=".2" y1="0" x2=".8" y2="1"><stop stop-color="#88b758"/><stop offset="1" stop-color="#3d774b"/></linearGradient><linearGradient id="cream" x1=".2" y1="0" x2=".8" y2="1"><stop stop-color="#fff3d4"/><stop offset="1" stop-color="#d9be99"/></linearGradient><mask id="mk" maskUnits="userSpaceOnUse" x="-80" y="-100" width="170" height="190"><path d="M-25 -5 C-27 -23 -17 -39 0 -37 C18 -39 28 -20 25 -5 Q0 2 -25 -5Z" fill="#fff" stroke="#000" stroke-width="2.6"/><ellipse cx="-5.0" cy="12.8" rx="4.3" ry="6.2" fill="#000"/><ellipse cx="5.0" cy="12.8" rx="4.3" ry="6.2" fill="#000"/><ellipse cx="0.0" cy="22.9" rx="5.5" ry="3.4" fill="#000"/></mask></defs><g stroke-linejoin="round" stroke-linecap="round"><ellipse cx="0" cy="38" rx="28.6" ry="4" fill="#233e2b" opacity=".16"/><g data-host="void_shroom"><g transform="translate(0.0 9.0) rotate(0.0) scale(0.800)"><ellipse cx="0" cy="35" rx="22" ry="4" fill="#233e2b" stroke="none" stroke-width="1.4" opacity=".14"/><path d="M-10 -6 Q-4 16 -14 28 Q-19 36 -5 35 L8 35 Q19 36 12 28 Q6 16 11 -6Z" fill="url(#cream)" stroke="#283e35" stroke-width="1.7"/><path d="M-10 -2 Q-3 21 -13 30 L-7 33 Q0 11 -2 -2Z" fill="#d4c297" stroke="none" stroke-width="1.7"/><ellipse cx="0" cy="-3" rx="25" ry="8" fill="#77576c" stroke="#283e35" stroke-width="1.4"/><path d="M-18 -3 L-6 1 M-8 -4 L-2 2 M8 -4 L3 2 M18 -3 L7 1" fill="none" stroke="#e7c9c4" stroke-width="1"/><path d="M-25 -5 C-27 -23 -17 -39 0 -37 C18 -39 28 -20 25 -5 Q0 2 -25 -5Z" fill="url(#skin)" stroke="#283e35" stroke-width="2"/><path d="M-34 -10 Q-43 -24 -31 -35 M34 -10 Q43 -24 31 -35" fill="none" stroke="#c6b3e4" stroke-width="2.4"/><path d="M-19 -12 Q-19 -28 -8 -31" fill="none" stroke="#ffffff" stroke-width="2" opacity=".32"/><path d="M9 -30 Q-8 -22 5 -11 Q-16 -13 -10 -26 Q-4 -35 9 -30Z" fill="#c5b1e4" stroke="none" stroke-width="1.7"/><ellipse cx="-5" cy="13" rx="2.4" ry="4" fill="#283e35" stroke="none" stroke-width="1.4"/><ellipse cx="-5.65" cy="11.4" rx="0.75" ry="1.1" fill="#fffbed" stroke="none" stroke-width="1.4"/><ellipse cx="5" cy="13" rx="2.4" ry="4" fill="#283e35" stroke="none" stroke-width="1.4"/><ellipse cx="4.35" cy="11.4" rx="0.75" ry="1.1" fill="#fffbed" stroke="none" stroke-width="1.4"/><path d="M-4 22 q4 3 8 0" fill="none" stroke="#283e35" stroke-width="1.4"/><ellipse cx="0" cy="-23" rx="10" ry="6" fill="#283844" stroke="#c6b3da" stroke-width="1.5"/><path d="M-18 -25 Q0 -41 21 -24" fill="none" stroke="#c3b3cf" stroke-width="1"/><g data-organ="pattern" mask="url(#mk)"><path d="M0.0 -5.6 Q-2.4 -19.5 1.0 -32.0" fill="none" stroke="#b5cd9d" stroke-width="1.4" opacity="0.39"/><path d="M0.0 -26.1 q-5.8 -2.0 -13.4 -5.0 M0.0 -26.1 q5.8 -2.0 13.4 -5.0" fill="none" stroke="#b5cd9d" stroke-width="1.0" opacity="0.33"/><path d="M0.0 -19.5 q-5.8 -2.0 -13.4 -5.0 M0.0 -19.5 q5.8 -2.0 13.4 -5.0" fill="none" stroke="#b5cd9d" stroke-width="1.0" opacity="0.33"/><path d="M0.0 -12.9 q-5.8 -2.0 -13.4 -5.0 M0.0 -12.9 q5.8 -2.0 13.4 -5.0" fill="none" stroke="#b5cd9d" stroke-width="1.0" opacity="0.33"/></g></g></g><g data-ingredient="umbrella_leaf"><g transform="translate(0.0 -16.4) rotate(0.0) scale(0.883)"><path d="M0 0 V-14" fill="none" stroke="#4d7e4f" stroke-width="2" /><path d="M-24 -10 Q0 -32 24 -10 L14 -13 L6 -9 L0 -13 L-7 -9 L-15 -13Z" fill="url(#leaf)" stroke="#283e35" stroke-width="1.3" /><path d="M0 -24 L-15 -13 M0 -24 L14 -13" fill="none" stroke="#a9c597" stroke-width="1" /></g></g><g data-element="shadow"><path d="M12.6 -15.4 q-6 -4 -2 -10 q5 -3 4 3 q-1 4 -4 2" fill="none" stroke="#8e7bc4" stroke-width="1.6"/><path d="M18.0 -24.4 a4 4 0 1 0 4 5 a3 3 0 1 1 -4 -5Z" fill="#d9ccff" stroke="#283e35" stroke-width="0.6"/></g></g></svg>