<svg xmlns="http://www.w3.org/2000/svg" width="192" height="224" viewBox="-48 -60 96 112" data-plant-kind="pair_mirror_shroom_sand_lotus" data-facing="right" data-model-archetype="mirror_shroom" data-geometry-signature="fe986742d0bec73a9ef94c1fb1e1dcb7"><defs><linearGradient id="skin" x1=".2" y1="0" x2=".8" y2="1"><stop stop-color="#d8ebe0"/><stop offset="1" stop-color="#7ba3b2"/></linearGradient><linearGradient id="lf" x1=".2" y1="0" x2=".8" y2="1"><stop stop-color="#88b758"/><stop offset="1" stop-color="#3d774b"/></linearGradient><linearGradient id="cream" x1=".2" y1="0" x2=".8" y2="1"><stop stop-color="#fff3d4"/><stop offset="1" stop-color="#d9be99"/></linearGradient><linearGradient id="bark" x1=".2" y1="0" x2=".8" y2="1"><stop stop-color="#dcb474"/><stop offset="1" stop-color="#aa783f"/></linearGradient><linearGradient id="mint" x1=".2" y1="0" x2=".8" y2="1"><stop stop-color="#bfe8cb"/><stop offset="1" stop-color="#599993"/></linearGradient><mask id="mk" maskUnits="userSpaceOnUse" x="-80" y="-100" width="170" height="190"><path d="M-29 -5 L-18 -30 L2 -39 L23 -26 L29 -5 L3 1Z" fill="#fff" stroke="#000" stroke-width="2.6"/><ellipse cx="-5.0" cy="12.8" rx="4.3" ry="6.2" fill="#000"/><ellipse cx="5.0" cy="12.8" rx="4.3" ry="6.2" fill="#000"/><ellipse cx="0.0" cy="22.9" rx="5.5" ry="3.4" fill="#000"/></mask></defs><g stroke-linejoin="round" stroke-linecap="round"><ellipse cx="0" cy="38" rx="28.6" ry="4" fill="#233e2b" opacity=".16"/><g data-ingredient="sand_lotus"><g transform="translate(0.0 38.0) rotate(0.0) scale(0.912)"><path d="M-34 6 L-26 -2 L-12 2 L0 -4 L14 2 L28 0 L34 6Z" fill="#e7ca91" stroke="#b18d60" stroke-width="1" /><ellipse cx="0" cy="2" rx="30" ry="6" fill="url(#mint)" stroke="#283e35" stroke-width="1.3"/><g transform="translate(-13.15 4) rotate(-70.0)"><path d="M0 0 C-8 -8 -8 -15 0 -20 C8 -15 8 -8 0 0Z" fill="url(#bark)" stroke="#283e35" stroke-width="1.25" /><path d="M0 -5 V-14" fill="none" stroke="#fff3c8" stroke-width="0.75" /></g><g transform="translate(-9.36 4) rotate(-42.0)"><path d="M0 0 C-8 -8 -8 -15 0 -20 C8 -15 8 -8 0 0Z" fill="url(#bark)" stroke="#283e35" stroke-width="1.25" /><path d="M0 -5 V-14" fill="none" stroke="#fff3c8" stroke-width="0.75" /></g><g transform="translate(-3.38 4) rotate(-14.0)"><path d="M0 0 C-8 -8 -8 -15 0 -20 C8 -15 8 -8 0 0Z" fill="url(#bark)" stroke="#283e35" stroke-width="1.25" /><path d="M0 -5 V-14" fill="none" stroke="#fff3c8" stroke-width="0.75" /></g><g transform="translate(3.38 4) rotate(14.0)"><path d="M0 0 C-8 -8 -8 -15 0 -20 C8 -15 8 -8 0 0Z" fill="url(#bark)" stroke="#283e35" stroke-width="1.25" /><path d="M0 -5 V-14" fill="none" stroke="#fff3c8" stroke-width="0.75" /></g><g transform="translate(9.36 4) rotate(42.0)"><path d="M0 0 C-8 -8 -8 -15 0 -20 C8 -15 8 -8 0 0Z" fill="url(#bark)" stroke="#283e35" stroke-width="1.25" /><path d="M0 -5 V-14" fill="none" stroke="#fff3c8" stroke-width="0.75" /></g><g transform="translate(13.15 4) rotate(70.0)"><path d="M0 0 C-8 -8 -8 -15 0 -20 C8 -15 8 -8 0 0Z" fill="url(#bark)" stroke="#283e35" stroke-width="1.25" /><path d="M0 -5 V-14" fill="none" stroke="#fff3c8" stroke-width="0.75" /></g><ellipse cx="0" cy="2" rx="10" ry="3.5" fill="#f0d9a6" stroke="#283e35" stroke-width="0.9"/></g></g><g data-host="mirror_shroom"><g transform="translate(0.0 6.2) rotate(0.0) scale(0.880)"><ellipse cx="0" cy="35" rx="22" ry="4" fill="#233e2b" stroke="none" stroke-width="1.4" opacity=".14"/><path d="M-10 -6 Q-4 16 -14 28 Q-19 36 -5 35 L8 35 Q19 36 12 28 Q6 16 11 -6Z" fill="url(#cream)" stroke="#283e35" stroke-width="1.7"/><path d="M-10 -2 Q-3 21 -13 30 L-7 33 Q0 11 -2 -2Z" fill="#d4c297" stroke="none" stroke-width="1.7"/><ellipse cx="0" cy="-3" rx="25" ry="8" fill="#77576c" stroke="#283e35" stroke-width="1.4"/><path d="M-18 -3 L-6 1 M-8 -4 L-2 2 M8 -4 L3 2 M18 -3 L7 1" fill="none" stroke="#e7c9c4" stroke-width="1"/><path d="M-29 -5 L-18 -30 L2 -39 L23 -26 L29 -5 L3 1Z" fill="url(#skin)" stroke="#283e35" stroke-width="2"/><path d="M-18 -28 L-5 -9 L-25 -9 M-5 -9 L2 -34 L14 -7 L-5 -9 L1 -1 M14 -7 L24 -20" fill="none" stroke="#e5ffff" stroke-width="1.2"/><ellipse cx="-5" cy="13" rx="2.4" ry="4" fill="#283e35" stroke="none" stroke-width="1.4"/><ellipse cx="-5.65" cy="11.4" rx="0.75" ry="1.1" fill="#fffbed" stroke="none" stroke-width="1.4"/><ellipse cx="5" cy="13" rx="2.4" ry="4" fill="#283e35" stroke="none" stroke-width="1.4"/><ellipse cx="4.35" cy="11.4" rx="0.75" ry="1.1" fill="#fffbed" stroke="none" stroke-width="1.4"/><path d="M-4 22 q4 3 8 0" fill="none" stroke="#283e35" stroke-width="1.4"/><g data-organ="pattern" mask="url(#mk)"><ellipse cx="16.8" cy="-24.5" rx="1.0" ry="0.7" fill="#f6e2c2" stroke="none" stroke-width="0.0" opacity="0.36"/><ellipse cx="-14.8" cy="-11.1" rx="1.1" ry="0.8" fill="#66431c" stroke="none" stroke-width="0.0" opacity="0.36"/><ellipse cx="-15.1" cy="-8.7" rx="2.0" ry="1.5" fill="#66431c" stroke="none" stroke-width="0.0" opacity="0.36"/><ellipse cx="5.9" cy="-18.5" rx="1.0" ry="0.8" fill="#f6e2c2" stroke="none" stroke-width="0.0" opacity="0.36"/><ellipse cx="-9.3" cy="-17.5" rx="1.0" ry="0.8" fill="#66431c" stroke="none" stroke-width="0.0" opacity="0.36"/><ellipse cx="-16.5" cy="-6.8" rx="1.7" ry="1.3" fill="#66431c" stroke="none" stroke-width="0.0" opacity="0.36"/><ellipse cx="16.7" cy="-9.0" rx="1.2" ry="0.9" fill="#f6e2c2" stroke="none" stroke-width="0.0" opacity="0.36"/><ellipse cx="6.2" cy="-4.4" rx="1.0" ry="0.7" fill="#66431c" stroke="none" stroke-width="0.0" opacity="0.36"/><ellipse cx="-3.4" cy="-16.4" rx="2.0" ry="1.5" fill="#66431c" stroke="none" stroke-width="0.0" opacity="0.36"/></g></g></g><g data-element="earth"><path d="M10.4 -20.3 l3 -3 3 1 1 3 -4 1Z" fill="#b3a68a" stroke="#283e35" stroke-width="0.7"/></g></g></svg>