<svg xmlns="http://www.w3.org/2000/svg" width="192" height="224" viewBox="-48 -60 96 112" data-plant-kind="pair_holo_nut_thunder_god" data-facing="right" data-model-archetype="nut" data-geometry-signature="597dd4fe3e404a0e16aeeeb288af7bf4"><defs><linearGradient id="hp" x1=".2" y1="0" x2=".8" y2="1"><stop stop-color="#baeab7"/><stop offset="1" stop-color="#53a071"/></linearGradient><linearGradient id="gold" x1=".2" y1="0" x2=".8" y2="1"><stop stop-color="#fbe4a0"/><stop offset="1" stop-color="#d6953f"/></linearGradient></defs><g stroke-linejoin="round" stroke-linecap="round"><ellipse cx="0" cy="38" rx="29.5" ry="4" fill="#233e2b" opacity=".16"/><g data-host="holo_nut"><g transform="translate(0.0 9.0) rotate(0.0) scale(0.800)"><ellipse cx="0" cy="35" rx="25" ry="4" fill="#233e2b" stroke="none" stroke-width="1.4" opacity=".14"/><path d="M-24 25 Q-29 2 -22 -39 Q-18 -53 0 -49 Q22 -53 25 -33 Q31 13 22 32 Q1 40 -20 32Z" fill="url(#hp)" stroke="#283e35" stroke-width="2" /><path d="M-20 -15 H20 M-24 3 H25 M-21 24 H22" fill="none" stroke="#bcffea" stroke-width="1" /><path d="M-25 0 h8 v-5 h-10 M22 17 h8 v4 h-12" fill="none" stroke="#737dbf" stroke-width="2.8" /><ellipse cx="-7" cy="-8" rx="2.4" ry="4" fill="#283e35" stroke="none" stroke-width="1.4"/><ellipse cx="-7.65" cy="-9.6" rx="0.75" ry="1.1" fill="#fffbed" stroke="none" stroke-width="1.4"/><ellipse cx="7" cy="-8" rx="2.4" ry="4" fill="#283e35" stroke="none" stroke-width="1.4"/><ellipse cx="6.35" cy="-9.6" rx="0.75" ry="1.1" fill="#fffbed" stroke="none" stroke-width="1.4"/><path d="M-4 1 q4 3 8 0" fill="none" stroke="#283e35" stroke-width="1.4" /></g></g><g data-organ="graft-collar"><path d="M-20 35 Q-8 29 0 33 Q9 28 20 34" fill="none" stroke="#283e35" stroke-width="3.6"/><path d="M-20 35 Q-8 29 0 33 Q9 28 20 34" fill="none" stroke="#6fa553" stroke-width="2"/><path d="M-14.0 32.0 q-5 -6 -1 -10 q5 3 1 10Z" fill="url(#gold)" stroke="#283e35" stroke-width="0.9" transform="rotate(-30 -14.0 32.0)"/><path d="M0.0 30.0 q-5 -6 -1 -10 q5 3 1 10Z" fill="url(#gold)" stroke="#283e35" stroke-width="0.9" transform="rotate(0 0.0 30.0)"/><path d="M14.0 32.0 q-5 -6 -1 -10 q5 3 1 10Z" fill="url(#gold)" stroke="#283e35" stroke-width="0.9" transform="rotate(30 14.0 32.0)"/><circle cx="1" cy="32" r="2.2" fill="#fff2a8" stroke="#283e35" stroke-width="0.8"/></g><g data-ingredient="thunder_god"><g transform="translate(0.0 -26.0) rotate(0.0) scale(0.883)"><path d="M-12 0 L-14 -10 L-6 -6 L0 -14 L6 -6 L14 -10 L12 0Z" fill="url(#gold)" stroke="#283e35" stroke-width="1.2" /><g transform="translate(0 -18) scale(0.6)"><path d="M-1 -14 L-9 1 L-2 1 L-6 14 L8 -3 L1 -3 L5 -14Z" fill="url(#gold)" stroke="#283e35" stroke-width="1.1" /></g><g transform="translate(-12 -16) scale(0.35)"><path d="M-1 -14 L-9 1 L-2 1 L-6 14 L8 -3 L1 -3 L5 -14Z" fill="url(#gold)" stroke="#283e35" stroke-width="1.1" /></g><g transform="translate(12 -16) scale(0.35)"><path d="M-1 -14 L-9 1 L-2 1 L-6 14 L8 -3 L1 -3 L5 -14Z" fill="url(#gold)" stroke="#283e35" stroke-width="1.1" /></g></g></g></g></svg>