<svg xmlns="http://www.w3.org/2000/svg" width="192" height="224" viewBox="-48 -60 96 112" data-plant-kind="pair_holo_nut_scaredy_shroom" data-facing="right" data-model-archetype="holo_nut" data-geometry-signature="64a85c211c2cdd1edba6f25bdaae6be0"><defs><linearGradient id="skin" x1=".2" y1="0" x2=".8" y2="1"><stop stop-color="#bbdbca"/><stop offset="1" stop-color="#5b8f92"/></linearGradient><linearGradient id="lf" x1=".2" y1="0" x2=".8" y2="1"><stop stop-color="#a9bf95"/><stop offset="1" stop-color="#5c5f7e"/></linearGradient><linearGradient id="plum" x1=".2" y1="0" x2=".8" y2="1"><stop stop-color="#a995c5"/><stop offset="1" stop-color="#665c8a"/></linearGradient><mask id="mk" maskUnits="userSpaceOnUse" x="-80" y="-100" width="170" height="190"><path d="M-24 25 Q-29 2 -22 -39 Q-18 -53 0 -49 Q22 -53 25 -33 Q31 13 22 32 Q1 40 -20 32Z" fill="#fff" stroke="#000" stroke-width="2.6"/><ellipse cx="-7.0" cy="-8.2" rx="4.3" ry="6.2" fill="#000"/><ellipse cx="7.0" cy="-8.2" rx="4.3" ry="6.2" fill="#000"/><ellipse cx="0.0" cy="1.9" rx="5.5" ry="3.4" fill="#000"/></mask></defs><g stroke-linejoin="round" stroke-linecap="round"><ellipse cx="0" cy="38" rx="29.5" ry="4" fill="#233e2b" opacity=".16"/><g data-host="holo_nut"><g transform="translate(0.0 9.0) rotate(0.0) scale(0.800)"><ellipse cx="0" cy="35" rx="25" ry="4" fill="#233e2b" stroke="none" stroke-width="1.4" opacity=".14"/><path d="M-24 25 Q-29 2 -22 -39 Q-18 -53 0 -49 Q22 -53 25 -33 Q31 13 22 32 Q1 40 -20 32Z" fill="url(#skin)" stroke="#283e35" stroke-width="2"/><path d="M-20 -15 H20 M-24 3 H25 M-21 24 H22" fill="none" stroke="#bcf2e7" stroke-width="1"/><path d="M-25 0 h8 v-5 h-10 M22 17 h8 v4 h-12" fill="none" stroke="#737dbf" stroke-width="2.8"/><ellipse cx="-7" cy="-8" rx="2.4" ry="4" fill="#283e35" stroke="none" stroke-width="1.4"/><ellipse cx="-7.65" cy="-9.6" rx="0.75" ry="1.1" fill="#fffbed" stroke="none" stroke-width="1.4"/><ellipse cx="7" cy="-8" rx="2.4" ry="4" fill="#283e35" stroke="none" stroke-width="1.4"/><ellipse cx="6.35" cy="-9.6" rx="0.75" ry="1.1" fill="#fffbed" stroke="none" stroke-width="1.4"/><path d="M-4 1 q4 3 8 0" fill="none" stroke="#283e35" stroke-width="1.4"/><g data-organ="pattern" mask="url(#mk)"><ellipse cx="16.7" cy="-22.5" rx="4.9" ry="3.8" fill="#fff3dc" stroke="#3a3353" stroke-width="0.5" opacity="0.50"/><ellipse cx="13.5" cy="1.4" rx="5.2" ry="4.0" fill="#fff3dc" stroke="#3a3353" stroke-width="0.5" opacity="0.50"/><ellipse cx="18.0" cy="9.3" rx="3.5" ry="2.7" fill="#fff3dc" stroke="#3a3353" stroke-width="0.5" opacity="0.50"/><ellipse cx="8.0" cy="-33.5" rx="3.3" ry="2.5" fill="#fff3dc" stroke="#3a3353" stroke-width="0.5" opacity="0.50"/><ellipse cx="1.0" cy="-16.6" rx="3.2" ry="2.5" fill="#fff3dc" stroke="#3a3353" stroke-width="0.5" opacity="0.50"/></g><g data-organ="mood"><path d="M-11.2 -12.2 L-4.6 -14.0" fill="none" stroke="#283e35" stroke-width="1.3"/><path d="M11.2 -12.2 L4.6 -14.0" fill="none" stroke="#283e35" stroke-width="1.3"/></g></g></g><g data-ingredient="scaredy_shroom"><g transform="translate(0.0 -26.0) rotate(0.0) scale(0.883)"><path d="M-9.8 0 Q-11.7 -19.2 0 -20.4 Q11.7 -19.2 9.8 0 Q0 4 -9.8 0Z" fill="url(#plum)" stroke="#283e35" stroke-width="1.7" /><path d="M-9.1 -4.2 Q-7.8 -10.2 -1.3 -11.4" fill="none" stroke="#ffffff" stroke-width="1.6" opacity=".4"/><ellipse cx="-6.1" cy="-8.4" rx="2.2" ry="1.6" fill="#fff1dc" stroke="none" stroke-width="0"/><ellipse cx="0.0" cy="-4.3" rx="3.2" ry="1.6" fill="#fff1dc" stroke="none" stroke-width="0"/><ellipse cx="6.1" cy="-3.6" rx="2.2" ry="1.6" fill="#fff1dc" stroke="none" stroke-width="0"/></g></g><g data-element="dream"><g transform="translate(21.6 -25.0) scale(0.68)"><path d="M0 0 Q-7 -8 -9 -2 Q-8 3 0 1Z M0 0 Q7 -8 9 -2 Q8 3 0 1Z" fill="#e39bff" stroke="#283e35" stroke-width="0.8"/><path d="M0 1 Q-5 6 -4 8 Q-1 7 0 2Z M0 1 Q5 6 4 8 Q1 7 0 2Z" fill="#f6c8ff" stroke="#283e35" stroke-width="0.6"/></g><path d="M27.9 -33.1 h3 l-3 3 h3" fill="none" stroke="#b58ad8" stroke-width="0.9"/></g></g></svg>