<svg xmlns="http://www.w3.org/2000/svg" width="192" height="224" viewBox="-48 -60 96 112"><defs><linearGradient id="pea" x1=".2" y1="0" x2=".8" y2="1"><stop stop-color="#b7dc7a"/><stop offset="1" stop-color="#55904d"/></linearGradient><linearGradient id="leaf" x1=".2" y1="0" x2=".8" y2="1"><stop stop-color="#88b758"/><stop offset="1" stop-color="#3d774b"/></linearGradient><linearGradient id="gold" x1=".2" y1="0" x2=".8" y2="1"><stop stop-color="#fbe4a0"/><stop offset="1" stop-color="#d6953f"/></linearGradient><linearGradient id="sun" x1=".2" y1="0" x2=".8" y2="1"><stop stop-color="#f0bd65"/><stop offset="1" stop-color="#bf813d"/></linearGradient><linearGradient id="cream" x1=".2" y1="0" x2=".8" y2="1"><stop stop-color="#fff3d4"/><stop offset="1" stop-color="#d9be99"/></linearGradient><linearGradient id="bark" x1=".2" y1="0" x2=".8" y2="1"><stop stop-color="#dcb474"/><stop offset="1" stop-color="#aa783f"/></linearGradient><linearGradient id="ice" x1=".2" y1="0" x2=".8" y2="1"><stop stop-color="#d7f5f4"/><stop offset="1" stop-color="#72abc8"/></linearGradient><linearGradient id="mint" x1=".2" y1="0" x2=".8" y2="1"><stop stop-color="#bfe8cb"/><stop offset="1" stop-color="#599993"/></linearGradient><linearGradient id="rose" x1=".2" y1="0" x2=".8" y2="1"><stop stop-color="#f3b6bd"/><stop offset="1" stop-color="#c36282"/></linearGradient><linearGradient id="violet" x1=".2" y1="0" x2=".8" y2="1"><stop stop-color="#d9c2e9"/><stop offset="1" stop-color="#997bb7"/></linearGradient><linearGradient id="plum" x1=".2" y1="0" x2=".8" y2="1"><stop stop-color="#a995c5"/><stop offset="1" stop-color="#665c8a"/></linearGradient><linearGradient id="night" x1=".2" y1="0" x2=".8" y2="1"><stop stop-color="#6e6b88"/><stop offset="1" stop-color="#35394e"/></linearGradient><linearGradient id="fire" x1=".2" y1="0" x2=".8" y2="1"><stop stop-color="#fbc478"/><stop offset="1" stop-color="#dc7243"/></linearGradient><linearGradient id="stone" x1=".2" y1="0" x2=".8" y2="1"><stop stop-color="#b3bbae"/><stop offset="1" stop-color="#747f7b"/></linearGradient></defs><g transform="translate(0 4) scale(.86)"><ellipse cx="0" cy="35" rx="27" ry="4" fill="#233e2b" opacity=".14" stroke="none" stroke-width="0"/><g transform="translate(-1 31) rotate(8)"><path d="M0 0 Q-21.6 -10.8 -27 0 Q-13.5 17.01 0 0Z" fill="url(#leaf)" stroke="#283e35" stroke-width="1.7" stroke-linejoin="round" stroke-linecap="round" /><path d="M-2 1 Q-12.15 0 -22.68 0" fill="none" stroke="#488343" stroke-width="0.8" stroke-linejoin="round" stroke-linecap="round" /></g><g transform="translate(2 32) rotate(170)"><path d="M0 0 Q-21.6 -10.8 -27 0 Q-13.5 17.01 0 0Z" fill="url(#leaf)" stroke="#283e35" stroke-width="1.7" stroke-linejoin="round" stroke-linecap="round" /><path d="M-2 1 Q-12.15 0 -22.68 0" fill="none" stroke="#488343" stroke-width="0.8" stroke-linejoin="round" stroke-linecap="round" /></g><g transform="translate(0 34) rotate(-35)"><path d="M0 0 Q-12.0 -6.0 -15 0 Q-7.5 9.45 0 0Z" fill="url(#leaf)" stroke="#283e35" stroke-width="1.7" stroke-linejoin="round" stroke-linecap="round" /><path d="M-2 1 Q-6.75 0 -12.6 0" fill="none" stroke="#488343" stroke-width="0.8" stroke-linejoin="round" stroke-linecap="round" /></g><ellipse cx="0" cy="30" rx="30" ry="8" fill="url(#leaf)" stroke="#283e35" stroke-width="1.4"/><g transform="translate(-13 15) rotate(-62)"><path d="M0 0 C-12 -8 -12 -40 0 -45 C12 -40 12 -8 0 0Z" fill="url(#bark)" stroke="#283e35" stroke-width="1.25" stroke-linejoin="round" stroke-linecap="round" /><path d="M0 -5 V-39" fill="none" stroke="#fff3c8" stroke-width="0.75" stroke-linejoin="round" stroke-linecap="round" /></g><g transform="translate(13 15) rotate(62)"><path d="M0 0 C-12 -8 -12 -40 0 -45 C12 -40 12 -8 0 0Z" fill="url(#bark)" stroke="#283e35" stroke-width="1.25" stroke-linejoin="round" stroke-linecap="round" /><path d="M0 -5 V-39" fill="none" stroke="#fff3c8" stroke-width="0.75" stroke-linejoin="round" stroke-linecap="round" /></g><g transform="translate(-7 15) rotate(-30)"><path d="M0 0 C-12 -8 -12 -40 0 -45 C12 -40 12 -8 0 0Z" fill="url(#bark)" stroke="#283e35" stroke-width="1.25" stroke-linejoin="round" stroke-linecap="round" /><path d="M0 -5 V-39" fill="none" stroke="#fff3c8" stroke-width="0.75" stroke-linejoin="round" stroke-linecap="round" /></g><g transform="translate(7 15) rotate(30)"><path d="M0 0 C-12 -8 -12 -40 0 -45 C12 -40 12 -8 0 0Z" fill="url(#bark)" stroke="#283e35" stroke-width="1.25" stroke-linejoin="round" stroke-linecap="round" /><path d="M0 -5 V-39" fill="none" stroke="#fff3c8" stroke-width="0.75" stroke-linejoin="round" stroke-linecap="round" /></g><g transform="translate(0 15) rotate(0)"><path d="M0 0 C-12 -8 -12 -40 0 -45 C12 -40 12 -8 0 0Z" fill="url(#bark)" stroke="#283e35" stroke-width="1.25" stroke-linejoin="round" stroke-linecap="round" /><path d="M0 -5 V-39" fill="none" stroke="#fff3c8" stroke-width="0.75" stroke-linejoin="round" stroke-linecap="round" /></g><ellipse cx="0" cy="13" rx="15" ry="10" fill="url(#gold)" stroke="#283e35" stroke-width="1.4"/><ellipse cx="-5" cy="9" rx="2.4" ry="4" fill="#283e35" stroke="none" stroke-width="1.4"/><ellipse cx="-5.65" cy="7.4" rx="0.75" ry="1.1" fill="#fffbed" stroke="none" stroke-width="1.4"/><ellipse cx="5" cy="9" rx="2.4" ry="4" fill="#283e35" stroke="none" stroke-width="1.4"/><ellipse cx="4.35" cy="7.4" rx="0.75" ry="1.1" fill="#fffbed" stroke="none" stroke-width="1.4"/><path d="M-4 18 q4 3 8 0" fill="none" stroke="#283e35" stroke-width="1.4" stroke-linejoin="round" stroke-linecap="round" /></g></svg>
